# xmcd
#
# Track frame offsets:
#	150
#	17501
#	31406
#	47917
#	63734
#	81602
#	101649
#	116624
#	131779
#	145794
#	159844
#	177489
#	192701
#	207060
#	222256
#	236116
#	253504
#	269276
#
# Disc length: 3807 seconds
#
# Revision: 0
# Processed by: cddbd v1.5.1PL0 Copyright (c) Steve Scherf et al.
# Submitted via: EasyCDDAExtractor 7.7.0.1
#
DISCID=110edd12
DTITLE=GLORIA ESTEFAN - UNRAPPED
DYEAR=2004
DGENRE=pop
TTITLE0=Tu fotografia
TTITLE1=Te amar?
TTITLE2=Mientras  tanto
TTITLE3=Hoy
TTITLE4=A little push
TTITLE5=Time waits
TTITLE6=Dangerous game
TTITLE7=Into you
TTITLE8=One name
TTITLE9=I will always need your love
TTITLE10=Say goodbye
TTITLE11=I wish you
TTITLE12=You
TTITLE13=Famous
TTITLE14=Te amar ? (english version)
TTITLE15=Your picture
TTITLE16=Wrapped
TTITLE17=In the meantime
EXTD=
EXTT0=
EXTT1=
EXTT2=
EXTT3=
EXTT4=
EXTT5=
EXTT6=
EXTT7=
EXTT8=
EXTT9=
EXTT10=
EXTT11=
EXTT12=
EXTT13=
EXTT14=
EXTT15=
EXTT16=
EXTT17=
PLAYORDER=
